<svg width="78" height="65" viewBox="0 0 78 65" fill="none" xmlns="http://www.w3.org/2000/svg">
<path d="M33.995 48.75C32.9744 48.745 31.9666 48.5604 31.0375 48.2083C30.0327 47.8392 29.1766 47.2369 28.5715 46.4733C27.9664 45.7097 27.6378 44.8171 27.625 43.9021V21.0979C27.6378 20.1829 27.9664 19.2903 28.5715 18.5267C29.1766 17.7631 30.0327 17.1607 31.0375 16.7917C32.1937 16.3366 33.48 16.1613 34.7499 16.2858C36.0198 16.4103 37.2221 16.8296 38.22 17.4958L54.795 28.8979C55.445 29.3291 55.9699 29.8769 56.3307 30.5006C56.6915 31.1242 56.8788 31.8077 56.8788 32.5C56.8788 33.1923 56.6915 33.8757 56.3307 34.4994C55.9699 35.123 55.445 35.6709 54.795 36.1021L38.22 47.5042C37.0252 48.3116 35.5333 48.7515 33.995 48.75Z" fill="white"/>
</svg>
