<svg width="60" height="60" viewBox="0 0 60 60" fill="none" xmlns="http://www.w3.org/2000/svg">
<path d="M17.5 55C16.125 55 14.9475 54.51 13.9675 53.53C12.9875 52.55 12.4983 51.3733 12.5 50C12.5 48.625 12.99 47.4475 13.97 46.4675C14.95 45.4875 16.1267 44.9983 17.5 45C18.875 45 20.0525 45.49 21.0325 46.47C22.0125 47.45 22.5017 48.6267 22.5 50C22.5 51.375 22.01 52.5525 21.03 53.5325C20.05 54.5125 18.8733 55.0017 17.5 55ZM42.5 55C41.125 55 39.9475 54.51 38.9675 53.53C37.9875 52.55 37.4983 51.3733 37.5 50C37.5 48.625 37.99 47.4475 38.97 46.4675C39.95 45.4875 41.1267 44.9983 42.5 45C43.875 45 45.0525 45.49 46.0325 46.47C47.0125 47.45 47.5017 48.6267 47.5 50C47.5 51.375 47.01 52.5525 46.03 53.5325C45.05 54.5125 43.8733 55.0017 42.5 55ZM17.5 42.5C15.625 42.5 14.2083 41.6767 13.25 40.03C12.2917 38.3833 12.25 36.7483 13.125 35.125L16.5 29L7.5 10H4.9375C4.22917 10 3.64583 9.76001 3.1875 9.28001C2.72917 8.80001 2.5 8.20668 2.5 7.50001C2.5 6.79168 2.74 6.19751 3.22 5.71751C3.7 5.23751 4.29333 4.99834 5 5.00001H9.0625C9.52083 5.00001 9.95833 5.12501 10.375 5.37501C10.7917 5.62501 11.1042 5.97918 11.3125 6.43751L13 10H49.875C51 10 51.7708 10.4167 52.1875 11.25C52.6042 12.0833 52.5833 12.9583 52.125 13.875L43.25 29.875C42.7917 30.7083 42.1875 31.3542 41.4375 31.8125C40.6875 32.2708 39.8333 32.5 38.875 32.5H20.25L17.5 37.5H45.0625C45.7708 37.5 46.3542 37.74 46.8125 38.22C47.2708 38.7 47.5 39.2933 47.5 40C47.5 40.7083 47.26 41.3025 46.78 41.7825C46.3 42.2625 45.7067 42.5017 45 42.5H17.5Z" fill="white"/>
</svg>
