<svg width="50" height="50" viewBox="0 0 50 50" fill="none" xmlns="http://www.w3.org/2000/svg">
<path d="M12.18 6H29.82C36.54 6 42 10.94 42 17.02V32.98C42 35.9027 40.7168 38.7057 38.4326 40.7723C36.1484 42.839 33.0503 44 29.82 44H12.18C5.46 44 0 39.06 0 32.98V17.02C0 14.0973 1.28325 11.2943 3.56744 9.22768C5.85163 7.16103 8.94966 6 12.18 6ZM11.76 9.8C9.75496 9.8 7.83205 10.5206 6.41427 11.8034C4.9965 13.0861 4.2 14.8259 4.2 16.64V33.36C4.2 37.141 7.581 40.2 11.76 40.2H30.24C32.245 40.2 34.168 39.4794 35.5857 38.1966C37.0035 36.9139 37.8 35.1741 37.8 33.36V16.64C37.8 12.859 34.419 9.8 30.24 9.8H11.76ZM32.025 12.65C32.7212 12.65 33.3889 12.9002 33.8812 13.3456C34.3734 13.791 34.65 14.3951 34.65 15.025C34.65 15.6549 34.3734 16.259 33.8812 16.7044C33.3889 17.1498 32.7212 17.4 32.025 17.4C31.3288 17.4 30.6611 17.1498 30.1688 16.7044C29.6766 16.259 29.4 15.6549 29.4 15.025C29.4 14.3951 29.6766 13.791 30.1688 13.3456C30.6611 12.9002 31.3288 12.65 32.025 12.65ZM21 15.5C23.7848 15.5 26.4555 16.5009 28.4246 18.2825C30.3938 20.0641 31.5 22.4804 31.5 25C31.5 27.5196 30.3938 29.9359 28.4246 31.7175C26.4555 33.4991 23.7848 34.5 21 34.5C18.2152 34.5 15.5445 33.4991 13.5754 31.7175C11.6062 29.9359 10.5 27.5196 10.5 25C10.5 22.4804 11.6062 20.0641 13.5754 18.2825C15.5445 16.5009 18.2152 15.5 21 15.5ZM21 19.3C19.3291 19.3 17.7267 19.9005 16.5452 20.9695C15.3637 22.0384 14.7 23.4883 14.7 25C14.7 26.5117 15.3637 27.9616 16.5452 29.0305C17.7267 30.0995 19.3291 30.7 21 30.7C22.6709 30.7 24.2733 30.0995 25.4548 29.0305C26.6363 27.9616 27.3 26.5117 27.3 25C27.3 23.4883 26.6363 22.0384 25.4548 20.9695C24.2733 19.9005 22.6709 19.3 21 19.3Z" fill="#F0F0F0"/>
</svg>
