<svg width="50" height="50" viewBox="0 0 50 50" fill="none" xmlns="http://www.w3.org/2000/svg">
<path d="M46.7913 12.5002C45.1872 13.2293 43.458 13.7085 41.6663 13.9377C43.4997 12.8335 44.9163 11.0835 45.583 8.97933C43.8538 10.021 41.9372 10.7502 39.9163 11.1668C38.2705 9.37516 35.958 8.3335 33.333 8.3335C28.4372 8.3335 24.4372 12.3335 24.4372 17.271C24.4372 17.9793 24.5205 18.6668 24.6663 19.3127C17.2497 18.9377 10.6455 15.3752 6.24967 9.97933C5.47884 11.2918 5.04134 12.8335 5.04134 14.4585C5.04134 17.5627 6.60384 20.3127 9.02051 21.8752C7.54134 21.8752 6.16634 21.4585 4.95801 20.8335V20.896C4.95801 25.2293 8.04134 28.8543 12.1247 29.6668C10.8137 30.0256 9.43737 30.0755 8.10384 29.8127C8.66969 31.5887 9.77788 33.1427 11.2726 34.2563C12.7674 35.3699 14.5735 35.987 16.4372 36.021C13.2781 38.5219 9.36217 39.8737 5.33301 39.8543C4.62467 39.8543 3.91634 39.8127 3.20801 39.7293C7.16634 42.271 11.8747 43.7502 16.9163 43.7502C33.333 43.7502 42.3538 30.1252 42.3538 18.3127C42.3538 17.9168 42.3538 17.5418 42.333 17.146C44.083 15.896 45.583 14.3127 46.7913 12.5002Z" fill="#43D2FF"/>
</svg>
